<svg width="18" height="21" viewBox="0 0 18 21" fill="none" xmlns="http://www.w3.org/2000/svg">
<path d="M0.789384 11.3561C0.619656 8.39761 2.71685 5.37793 5.80079 5.37793C6.51095 5.37793 6.833 5.54397 7.60648 5.786C8.02061 5.91558 8.72238 6.27567 9.12816 6.27567C9.53394 6.27567 10.0209 6.01043 10.6777 5.76818C11.6095 5.42451 12.1606 5.38775 12.699 5.37793C14.5048 5.37793 15.8304 6.13707 16.6757 7.31624C15.2805 8.22924 14.5453 9.33616 14.5047 11.1316C14.5047 12.7639 15.5395 14.3554 17.2032 15.0695C16.7974 16.7834 14.6062 20.3131 12.8005 20.3131C12.1804 20.2775 11.7994 20.1801 11.0759 19.9051C10.5368 19.6674 9.81799 19.497 9.35134 19.497C8.86441 19.4766 8.31866 19.6353 7.63692 19.9051C7.05869 20.1339 6.71417 20.2637 5.9225 20.3131C4.42112 20.4068 1.09021 16.5997 0.789384 11.3561Z" fill="#F8F9FA"/>
<path d="M10.102 2.19502C9.26452 3.10203 8.94556 4.29656 9.00643 5.37793C10.3861 5.27591 11.3397 4.70462 12.2121 3.64365C13.0845 2.58268 13.0909 1.81173 13.0845 0.685181C12.0691 0.851347 10.8933 1.33808 10.102 2.19502Z" fill="#F8F9FA"/>
</svg>
