<svg width="470" height="450" viewBox="0 0 470 450" fill="none" xmlns="http://www.w3.org/2000/svg">
<path fill-rule="evenodd" clip-rule="evenodd" d="M229.126 2.07584C268.909 6.46093 302.198 30.2385 336.918 50.1508C371.731 70.1171 409.891 86.3492 433.125 119.073C457.322 153.156 473.144 195.215 469.472 236.852C465.889 277.476 436.601 309.709 413.357 343.218C391.767 374.343 372.817 410.343 338.302 425.95C304.567 441.205 265.999 423.193 229.126 426.527C187.625 430.278 147.67 459.298 107.926 446.775C67.0802 433.905 35.563 397.953 16.5908 359.559C-1.93722 322.064 -3.14521 278.026 4.19416 236.852C10.8931 199.271 39.6449 171.415 56.2544 137.045C74.4144 99.4662 73.7843 50.4578 106.682 24.7731C139.968 -1.21478 187.15 -2.55085 229.126 2.07584Z" fill="#5C7CFA"/>
</svg>
