<svg width="263" height="415" viewBox="0 0 263 415" fill="none" xmlns="http://www.w3.org/2000/svg">
<g filter="url(#filter0_iiii_508_508)">
<rect x="263" width="414.598" height="263" rx="14.3559" transform="rotate(90 263 0)" fill="#3777F4"/>
</g>
<path d="M226.031 227.329L235.678 231.67V233.434L226.031 237.789V235.915L234.727 232.18V232.896L226.031 229.175V227.329ZM228.263 229.327L229.669 229.809V235.019L228.263 235.501V229.327ZM226.031 240.394H235.678V242.186H227.547V247.23H226.031V240.394ZM226.031 250.022H235.678V254.239C235.678 255.287 235.476 256.206 235.071 256.996C234.667 257.786 234.107 258.401 233.39 258.842C232.673 259.283 231.828 259.504 230.854 259.504C229.889 259.504 229.044 259.283 228.318 258.842C227.602 258.401 227.041 257.786 226.637 256.996C226.233 256.206 226.031 255.287 226.031 254.239V250.022ZM227.547 251.814V254.157C227.547 254.883 227.684 255.507 227.96 256.031C228.236 256.564 228.621 256.973 229.118 257.258C229.614 257.552 230.193 257.699 230.854 257.699C231.525 257.699 232.104 257.552 232.591 257.258C233.087 256.973 233.473 256.564 233.748 256.031C234.024 255.507 234.162 254.883 234.162 254.157V251.814H227.547ZM225.893 267.307C225.893 266.553 226.017 265.86 226.265 265.226C226.513 264.592 226.857 264.041 227.298 263.572C227.749 263.103 228.272 262.74 228.87 262.483C229.476 262.226 230.137 262.097 230.854 262.097C231.571 262.097 232.228 262.226 232.825 262.483C233.431 262.74 233.955 263.103 234.396 263.572C234.846 264.041 235.195 264.592 235.443 265.226C235.691 265.86 235.815 266.549 235.815 267.293C235.815 268.046 235.691 268.735 235.443 269.36C235.195 269.994 234.846 270.545 234.396 271.014C233.955 271.483 233.431 271.846 232.825 272.103C232.228 272.36 231.571 272.489 230.854 272.489C230.137 272.489 229.476 272.36 228.87 272.103C228.263 271.846 227.739 271.483 227.298 271.014C226.857 270.545 226.513 269.994 226.265 269.36C226.017 268.735 225.893 268.051 225.893 267.307ZM227.464 267.293C227.464 267.78 227.547 268.23 227.712 268.644C227.877 269.057 228.112 269.415 228.415 269.719C228.727 270.022 229.085 270.256 229.49 270.421C229.903 270.596 230.358 270.683 230.854 270.683C231.35 270.683 231.8 270.596 232.205 270.421C232.618 270.256 232.976 270.022 233.28 269.719C233.592 269.415 233.831 269.057 233.996 268.644C234.162 268.23 234.244 267.78 234.244 267.293C234.244 266.806 234.162 266.356 233.996 265.942C233.831 265.538 233.592 265.18 233.28 264.867C232.976 264.564 232.618 264.325 232.205 264.151C231.8 263.985 231.35 263.903 230.854 263.903C230.367 263.903 229.917 263.985 229.503 264.151C229.09 264.325 228.727 264.564 228.415 264.867C228.112 265.171 227.877 265.529 227.712 265.942C227.547 266.356 227.464 266.806 227.464 267.293ZM226.031 278.323L235.678 274.105V276.049L226.954 279.811V278.695L235.678 282.498V284.29L226.031 280.087V278.323ZM226.031 285.012L235.678 289.354V291.118L226.031 295.473V293.598L234.727 289.863V290.58L226.031 286.859V285.012ZM228.263 287.011L229.669 287.493V292.703L228.263 293.185V287.011ZM226.031 298.078H235.678V299.552L228.249 305.602V304.872H235.678V306.65H226.031V305.175L233.459 299.125V299.856H226.031V298.078ZM226.031 310.613H235.678V312.405H226.031V310.613ZM235.678 328.36V330.151H226.031V328.36H235.678ZM226.031 323.371V321.579H235.678V323.371H226.031ZM230.165 328.498V323.219H231.695V328.498H230.165ZM225.893 343.767C225.893 343.032 226.012 342.347 226.251 341.713C226.499 341.089 226.844 340.542 227.285 340.073C227.735 339.614 228.263 339.256 228.87 338.998C229.476 338.741 230.137 338.612 230.854 338.612C231.571 338.612 232.232 338.741 232.839 338.998C233.445 339.256 233.969 339.619 234.41 340.087C234.86 340.556 235.205 341.102 235.443 341.727C235.691 342.352 235.815 343.036 235.815 343.781C235.815 344.571 235.678 345.292 235.402 345.944C235.136 346.597 234.736 347.148 234.203 347.598L233.114 346.44C233.491 346.091 233.771 345.701 233.955 345.269C234.148 344.837 234.244 344.369 234.244 343.863C234.244 343.358 234.162 342.894 233.996 342.471C233.831 342.058 233.597 341.695 233.293 341.383C232.99 341.079 232.632 340.84 232.218 340.666C231.805 340.501 231.35 340.418 230.854 340.418C230.358 340.418 229.903 340.501 229.49 340.666C229.076 340.84 228.718 341.079 228.415 341.383C228.112 341.695 227.877 342.058 227.712 342.471C227.547 342.894 227.464 343.358 227.464 343.863C227.464 344.369 227.556 344.837 227.739 345.269C227.932 345.701 228.222 346.091 228.608 346.44L227.505 347.598C226.981 347.148 226.582 346.597 226.306 345.944C226.031 345.292 225.893 344.566 225.893 343.767ZM225.893 355.011C225.893 354.258 226.017 353.564 226.265 352.93C226.513 352.296 226.857 351.745 227.298 351.277C227.749 350.808 228.272 350.445 228.87 350.188C229.476 349.931 230.137 349.802 230.854 349.802C231.571 349.802 232.228 349.931 232.825 350.188C233.431 350.445 233.955 350.808 234.396 351.277C234.846 351.745 235.195 352.296 235.443 352.93C235.691 353.564 235.815 354.253 235.815 354.998C235.815 355.751 235.691 356.44 235.443 357.065C235.195 357.699 234.846 358.25 234.396 358.719C233.955 359.187 233.431 359.55 232.825 359.807C232.228 360.065 231.571 360.193 230.854 360.193C230.137 360.193 229.476 360.065 228.87 359.807C228.263 359.55 227.739 359.187 227.298 358.719C226.857 358.25 226.513 357.699 226.265 357.065C226.017 356.44 225.893 355.756 225.893 355.011ZM227.464 354.998C227.464 355.485 227.547 355.935 227.712 356.348C227.877 356.762 228.112 357.12 228.415 357.423C228.727 357.726 229.085 357.961 229.49 358.126C229.903 358.301 230.358 358.388 230.854 358.388C231.35 358.388 231.8 358.301 232.205 358.126C232.618 357.961 232.976 357.726 233.28 357.423C233.592 357.12 233.831 356.762 233.996 356.348C234.162 355.935 234.244 355.485 234.244 354.998C234.244 354.511 234.162 354.06 233.996 353.647C233.831 353.243 233.592 352.884 233.28 352.572C232.976 352.269 232.618 352.03 232.205 351.855C231.8 351.69 231.35 351.607 230.854 351.607C230.367 351.607 229.917 351.69 229.503 351.855C229.09 352.03 228.727 352.269 228.415 352.572C228.112 352.875 227.877 353.234 227.712 353.647C227.547 354.06 227.464 354.511 227.464 354.998ZM225.893 366.461C225.893 365.708 225.998 364.987 226.21 364.297C226.43 363.608 226.71 363.062 227.05 362.657L228.442 363.278C228.139 363.664 227.886 364.141 227.684 364.711C227.482 365.281 227.381 365.864 227.381 366.461C227.381 366.967 227.436 367.375 227.547 367.688C227.657 368 227.804 368.23 227.988 368.377C228.18 368.524 228.396 368.597 228.635 368.597C228.929 368.597 229.164 368.492 229.338 368.28C229.522 368.069 229.664 367.793 229.765 367.453C229.876 367.123 229.977 366.751 230.069 366.337C230.16 365.933 230.266 365.524 230.386 365.111C230.514 364.706 230.675 364.334 230.868 363.994C231.07 363.664 231.336 363.392 231.667 363.181C231.998 362.97 232.421 362.864 232.935 362.864C233.459 362.864 233.937 363.002 234.368 363.278C234.809 363.562 235.159 363.99 235.416 364.559C235.682 365.138 235.815 365.869 235.815 366.751C235.815 367.329 235.742 367.904 235.595 368.473C235.448 369.043 235.237 369.539 234.961 369.962L233.569 369.397C233.826 368.965 234.015 368.519 234.134 368.06C234.263 367.6 234.327 367.159 234.327 366.737C234.327 366.241 234.267 365.836 234.148 365.524C234.028 365.221 233.872 364.996 233.679 364.849C233.486 364.711 233.266 364.642 233.018 364.642C232.724 364.642 232.485 364.743 232.301 364.945C232.127 365.157 231.989 365.428 231.888 365.758C231.787 366.098 231.686 366.475 231.585 366.888C231.493 367.302 231.387 367.711 231.268 368.115C231.148 368.528 230.992 368.901 230.799 369.231C230.606 369.571 230.344 369.842 230.013 370.044C229.683 370.256 229.265 370.361 228.759 370.361C228.245 370.361 227.767 370.219 227.326 369.934C226.894 369.659 226.545 369.231 226.279 368.652C226.021 368.074 225.893 367.343 225.893 366.461ZM226.031 375.339H234.162V372.141H235.678V380.327H234.162V377.13H226.031V375.339ZM226.031 381.201L235.678 385.543V387.307L226.031 391.662V389.787L234.727 386.052V386.769L226.031 383.048V381.201ZM228.263 383.2L229.669 383.682V388.891L228.263 389.374V383.2Z" fill="#FEFBFF"/>
<circle cx="58.141" cy="326.597" r="26.2716" transform="rotate(90 58.141 326.597)" fill="#E71924"/>
<circle cx="58.141" cy="358.615" r="26.2716" transform="rotate(90 58.141 358.615)" fill="#F99F19"/>
<path fill-rule="evenodd" clip-rule="evenodd" d="M37.4126 342.606C42.2158 348.847 49.7605 352.868 58.2445 352.868C66.7285 352.868 74.2733 348.847 79.0764 342.606C74.2733 336.365 66.7285 332.344 58.2445 332.344C49.7605 332.344 42.2158 336.365 37.4126 342.606Z" fill="#F26520"/>
<rect x="182.495" y="46.1807" width="56.2376" height="39.8179" rx="3.48919" transform="rotate(90 182.495 46.1807)" fill="url(#paint0_linear_508_508)" stroke="#211F21" stroke-width="1.23148"/>
<path d="M169.564 46.386V63.2162" stroke="#211F21" stroke-width="1.14847" stroke-linecap="round"/>
<path d="M156.839 46.386V62.8472" stroke="#211F21" stroke-width="1.14847" stroke-linecap="round"/>
<path d="M156.839 85.7932V102.213" stroke="#211F21" stroke-width="1.14847" stroke-linecap="round"/>
<path d="M169.154 85.5466V102.213" stroke="#211F21" stroke-width="1.14847" stroke-linecap="round"/>
<circle cx="176.543" cy="74.2994" r="1.23148" transform="rotate(90 176.543 74.2994)" fill="#211F21"/>
<path d="M153.996 132.679C161.596 135.707 165.886 136.052 173.623 132.679C174.444 132.321 175.128 132.679 175.265 133.09C175.402 133.5 175.265 134.135 174.444 134.526C166.109 138.499 161.435 138.257 153.099 134.732C152.277 134.321 152.174 133.553 152.483 133.09C152.844 132.548 153.355 132.424 153.996 132.679Z" fill="#FEFBFF"/>
<path d="M173.007 128.369C172.802 127.959 172.024 127.696 171.16 128.164C165.414 130.925 162.128 130.812 156.177 128.164C155.577 127.875 154.914 128.054 154.74 128.574C154.535 129.19 154.972 129.728 155.561 130.011C161.886 133.051 165.52 133.131 172.186 130.011C172.802 129.723 173.315 128.985 173.007 128.369Z" fill="#FEFBFF"/>
<path d="M170.339 124.264C170.134 123.648 169.453 123.539 168.697 123.854C164.77 125.488 162.568 125.746 158.64 123.854C157.956 123.485 157.23 123.363 156.998 124.059C156.766 124.754 157.132 125.256 157.614 125.496C162.423 127.921 165.119 127.377 169.929 125.496C170.339 125.335 170.544 124.88 170.339 124.264Z" fill="#FEFBFF"/>
<path d="M168.697 119.954C168.287 119.338 167.664 119.251 166.645 119.749C164.482 120.787 163.267 120.764 161.103 119.749C160.149 119.277 159.051 119.133 158.845 119.954C158.64 120.775 158.932 121.14 160.077 121.596C163.09 122.644 164.794 122.747 167.876 121.596C168.676 121.331 169.108 120.775 168.697 119.954Z" fill="#FEFBFF"/>
<path d="M174.08 83.3302C179.444 81.7553 182.085 78.8148 182.085 74.0941C182.085 68.3472 177.709 66.723 169.77 63.2161C164.515 65.4619 161.684 65.4853 156.839 63.2161C146.284 66.895 143.033 69.6203 143.088 74.2994C143.088 80.4568 148.306 82.2093 156.839 85.588C161.649 83.811 164.303 83.6214 169.112 85.2741" stroke="#211F21" stroke-width="1.14847" stroke-linecap="round"/>
<path d="M40.7795 47.8638H66.5053V52.568L48.387 64.6591H66.5053V69.3632H40.7795V64.6591L58.8611 52.568H40.7795V47.8638ZM40.3385 81.0759C40.3385 78.7973 41.049 77.0333 42.4701 75.7837C43.8911 74.5587 45.9737 73.9462 48.7178 73.9462H59.0081V78.6136H49.1588C47.5907 78.6136 46.3902 78.9321 45.5572 79.5691C44.7242 80.2061 44.3076 81.2107 44.3076 82.5827C44.3076 83.8812 44.7732 84.947 45.7042 85.78C46.6352 86.6376 47.9338 87.0663 49.5998 87.0663H59.0081V91.7705H40.7795V87.6176L43.8666 87.2501C42.7886 86.6866 41.9311 85.8658 41.2941 84.7878C40.657 83.7342 40.3385 82.4969 40.3385 81.0759ZM40.7795 96.5995H67.2403V101.304H40.7795V96.5995ZM40.7795 106.11H67.2403V110.814H40.7795V106.11ZM40.7795 115.731H66.5053V126.058C66.5053 128.729 65.8805 130.763 64.631 132.159C63.406 133.58 61.8257 134.291 59.8901 134.291C58.2731 134.291 56.9745 133.85 55.9945 132.968C55.039 132.11 54.3897 131.057 54.0467 129.807C53.7527 131.277 53.0177 132.49 51.8416 133.445C50.6901 134.401 49.3425 134.879 47.799 134.879C45.7654 134.879 44.0871 134.144 42.7641 132.674C41.4411 131.204 40.7795 129.121 40.7795 126.426V115.731ZM55.7005 120.435V125.36C55.7005 126.683 56.0067 127.7 56.6193 128.41C57.2318 129.121 58.1016 129.476 59.2286 129.476C60.3066 129.476 61.1519 129.121 61.7644 128.41C62.4014 127.724 62.7199 126.683 62.7199 125.287V120.435H55.7005ZM44.6017 120.435V125.691C44.6017 127.087 44.9202 128.165 45.5572 128.925C46.2187 129.709 47.1375 130.101 48.3135 130.101C49.5141 130.101 50.4573 129.697 51.1433 128.888C51.8294 128.08 52.1724 126.989 52.1724 125.617V120.435H44.6017ZM40.3385 145.09C40.3385 143.522 40.5835 142.236 41.0735 141.231C41.5881 140.227 42.2618 139.48 43.0949 138.99C43.9279 138.5 44.8467 138.255 45.8512 138.255C47.5417 138.255 48.9138 138.916 49.9673 140.239C51.0208 141.562 51.5476 143.547 51.5476 146.193V150.823H51.9886C53.2382 150.823 54.1569 150.468 54.745 149.758C55.333 149.047 55.627 148.165 55.627 147.112C55.627 146.156 55.3942 145.323 54.9287 144.613C54.4877 143.902 53.8262 143.461 52.9442 143.289V138.696C54.2672 138.818 55.4187 139.259 56.3988 140.019C57.3788 140.803 58.1261 141.807 58.6406 143.032C59.1796 144.257 59.4491 145.629 59.4491 147.148C59.4491 149.745 58.7998 151.791 57.5013 153.286C56.2028 154.78 54.3652 155.528 51.9886 155.528H40.7795V151.522L43.7196 151.081C42.7396 150.542 41.9311 149.782 41.2941 148.802C40.657 147.847 40.3385 146.609 40.3385 145.09ZM44.0136 146.156C44.0136 147.504 44.4547 148.545 45.3367 149.28C46.2187 150.039 47.309 150.517 48.6075 150.713V146.707C48.6075 145.458 48.3748 144.564 47.9093 144.024C47.4682 143.485 46.917 143.216 46.2555 143.216C45.5449 143.216 44.9937 143.485 44.6017 144.024C44.2096 144.564 44.0136 145.274 44.0136 146.156ZM40.7795 160.017H59.0081V164.17L55.921 164.537C56.999 165.101 57.8566 165.909 58.4936 166.963C59.1306 168.041 59.4491 169.302 59.4491 170.748C59.4491 173.002 58.7386 174.754 57.3175 176.003C55.8965 177.253 53.8139 177.878 51.0698 177.878H40.7795V173.174H50.6288C52.1969 173.174 53.3974 172.855 54.2304 172.218C55.0635 171.581 55.48 170.589 55.48 169.241C55.48 167.918 55.0145 166.828 54.0834 165.97C53.1524 165.137 51.8539 164.721 50.1878 164.721H40.7795V160.017ZM40.7795 182.376H67.2403V187.08H51.6211L59.0081 193.548V199.134L50.7023 191.674L40.7795 200.347V194.467L49.9306 187.08H40.7795V182.376Z" fill="white"/>
<defs>
<filter id="filter0_iiii_508_508" x="-75" y="-75" width="413" height="564.598" filterUnits="userSpaceOnUse" color-interpolation-filters="sRGB">
<feFlood flood-opacity="0" result="BackgroundImageFix"/>
<feBlend mode="normal" in="SourceGraphic" in2="BackgroundImageFix" result="shape"/>
<feColorMatrix in="SourceAlpha" type="matrix" values="0 0 0 0 0 0 0 0 0 0 0 0 0 0 0 0 0 0 127 0" result="hardAlpha"/>
<feOffset dx="75" dy="-75"/>
<feGaussianBlur stdDeviation="94"/>
<feComposite in2="hardAlpha" operator="arithmetic" k2="-1" k3="1"/>
<feColorMatrix type="matrix" values="0 0 0 0 0.0862745 0 0 0 0 0.188235 0 0 0 0 0.384314 0 0 0 0.9 0"/>
<feBlend mode="normal" in2="shape" result="effect1_innerShadow_508_508"/>
<feColorMatrix in="SourceAlpha" type="matrix" values="0 0 0 0 0 0 0 0 0 0 0 0 0 0 0 0 0 0 127 0" result="hardAlpha"/>
<feOffset dx="-75" dy="75"/>
<feGaussianBlur stdDeviation="75"/>
<feComposite in2="hardAlpha" operator="arithmetic" k2="-1" k3="1"/>
<feColorMatrix type="matrix" values="0 0 0 0 0.345098 0 0 0 0 0.745098 0 0 0 0 1 0 0 0 0.9 0"/>
<feBlend mode="normal" in2="effect1_innerShadow_508_508" result="effect2_innerShadow_508_508"/>
<feColorMatrix in="SourceAlpha" type="matrix" values="0 0 0 0 0 0 0 0 0 0 0 0 0 0 0 0 0 0 127 0" result="hardAlpha"/>
<feOffset dx="75" dy="75"/>
<feGaussianBlur stdDeviation="75"/>
<feComposite in2="hardAlpha" operator="arithmetic" k2="-1" k3="1"/>
<feColorMatrix type="matrix" values="0 0 0 0 0.0862745 0 0 0 0 0.188235 0 0 0 0 0.384314 0 0 0 0.2 0"/>
<feBlend mode="normal" in2="effect2_innerShadow_508_508" result="effect3_innerShadow_508_508"/>
<feColorMatrix in="SourceAlpha" type="matrix" values="0 0 0 0 0 0 0 0 0 0 0 0 0 0 0 0 0 0 127 0" result="hardAlpha"/>
<feOffset dx="-75" dy="-75"/>
<feGaussianBlur stdDeviation="75"/>
<feComposite in2="hardAlpha" operator="arithmetic" k2="-1" k3="1"/>
<feColorMatrix type="matrix" values="0 0 0 0 0.0862745 0 0 0 0 0.188235 0 0 0 0 0.384314 0 0 0 0.2 0"/>
<feBlend mode="normal" in2="effect3_innerShadow_508_508" result="effect4_innerShadow_508_508"/>
</filter>
<linearGradient id="paint0_linear_508_508" x1="235.74" y1="51.2369" x2="187.505" y2="83.3941" gradientUnits="userSpaceOnUse">
<stop stop-color="#F4F4F4"/>
<stop offset="1" stop-color="#D6D6D6"/>
</linearGradient>
</defs>
</svg>
