<svg width="535" height="456" viewBox="0 0 535 456" fill="none" xmlns="http://www.w3.org/2000/svg">
<g id="carsds">
<g id="card-verso">
<rect id="Rectangle 978" x="94" y="223.969" width="383.699" height="243.399" rx="14.3559" transform="rotate(-18.1017 94 223.969)" fill="url(#paint0_linear_835_645)"/>
<g id="Mask group">
<mask id="mask0_835_645" style="mask-type:alpha" maskUnits="userSpaceOnUse" x="97" y="108" width="434" height="344">
<rect id="Rectangle 978_2" x="94" y="223.969" width="383.699" height="243.399" rx="14.3559" transform="rotate(-18.1017 94 223.969)" fill="url(#paint1_linear_835_645)"/>
</mask>
<g mask="url(#mask0_835_645)">
<ellipse id="Ellipse 181" cx="191.524" cy="455.928" rx="130.962" ry="65.1363" transform="rotate(20.6729 191.524 455.928)" fill="#26498F"/>
<ellipse id="Ellipse 180" cx="431.524" cy="130.135" rx="130.962" ry="65.1363" transform="rotate(20.6729 431.524 130.135)" fill="#26498F"/>
</g>
</g>
<rect id="Rectangle 979" x="99.4492" y="240.638" width="383.699" height="57.0467" transform="rotate(-18.1017 99.4492 240.638)" fill="#212529"/>
<rect id="Rectangle 980" x="143.441" y="334.167" width="83.6685" height="55.1452" rx="27.5726" transform="rotate(-18.1017 143.441 334.167)" fill="url(#paint2_linear_835_645)"/>
<text id="5032 9334 3764 9846" transform="translate(164.576 398.824) rotate(-18.1017)" fill="#FEFBFF" xml:space="preserve" style="white-space: pre" font-family="Rubik" font-size="19.1318" letter-spacing="0.03em"><tspan x="0" y="20.0527">5032 9334 3764 9846</tspan></text>
<text id="gold" transform="translate(152.418 293.212) rotate(-18.1017)" fill="#F7F2FA" xml:space="preserve" style="white-space: pre" font-family="Sora" font-size="19.1318" font-weight="600" letter-spacing="0em"><tspan x="0" y="20.0048">gold</tspan></text>
<text id="02/17" transform="translate(195.533 421.692) rotate(-18.1017)" fill="#FEFBFF" xml:space="preserve" style="white-space: pre" font-family="Rubik" font-size="9.56591" letter-spacing="0em"><tspan x="0" y="9.77633">02/17</tspan></text>
<text id="02/20" transform="translate(247.059 404.85) rotate(-18.1017)" fill="#FEFBFF" xml:space="preserve" style="white-space: pre" font-family="Rubik" font-size="9.56591" letter-spacing="0em"><tspan x="0" y="9.77633">02/20</tspan></text>
<text id="123" transform="translate(305.148 385.861) rotate(-18.1017)" fill="#FEFBFF" xml:space="preserve" style="white-space: pre" font-family="Rubik" font-size="9.56591" letter-spacing="0em"><tspan x="0" y="9.77633">123</tspan></text>
<g id="Group 693">
<text id="cirrus." transform="translate(478.723 333.596) rotate(-18.1017)" fill="#FBF9FC" xml:space="preserve" style="white-space: pre" font-family="Sora" font-size="6.90871" font-weight="600" letter-spacing="0em"><tspan x="0" y="7.34896">cirrus.</tspan></text>
<circle id="Ellipse 7" cx="474.448" cy="317.102" r="16.4746" transform="rotate(-18.1017 474.448 317.102)" fill="#0167B2"/>
<circle id="Ellipse 8" cx="493.643" cy="310.827" r="16.4746" transform="rotate(-18.1017 493.643 310.827)" fill="#02A1E2"/>
<path id="Intersect" fill-rule="evenodd" clip-rule="evenodd" d="M488.011 326.311C490.792 322.237 491.718 316.962 490.067 311.91C488.415 306.858 484.552 303.149 479.902 301.504C477.121 305.578 476.194 310.853 477.846 315.905C479.497 320.956 483.36 324.666 488.011 326.311Z" fill="#207CBD"/>
</g>
<text id="member since" transform="translate(175.824 429.812) rotate(-18.1017)" fill="#FEFBFF" xml:space="preserve" style="white-space: pre" font-family="Source Sans Pro" font-size="3.18864" letter-spacing="0.1em"><tspan x="0" y="3.13356">MEMBER&#10;</tspan><tspan x="0" y="7.13356">SINCE</tspan></text>
<text id="valid thru" transform="translate(232.398 411.319) rotate(-18.1017)" fill="#FEFBFF" xml:space="preserve" style="white-space: pre" font-family="Source Sans Pro" font-size="3.18864" letter-spacing="0.1em"><tspan x="0" y="3.13356">VALID&#10;</tspan><tspan x="0" y="7.13356">THRU</tspan></text>
<text id="security code" transform="translate(283.924 394.477) rotate(-18.1017)" fill="#FEFBFF" xml:space="preserve" style="white-space: pre" font-family="Source Sans Pro" font-size="3.18864" letter-spacing="0.1em"><tspan x="0" y="3.13356">SECURITY&#10;</tspan><tspan x="0" y="7.13356">CODE</tspan></text>
<path id="Vector" d="M287.697 265.766C287.785 266.033 287.762 266.325 287.635 266.577C287.507 266.828 287.285 267.018 287.017 267.106L280.955 269.087L279.595 271.768L276.953 263.686C276.866 263.418 276.888 263.127 277.016 262.875C277.143 262.624 277.365 262.433 277.633 262.346L284.705 260.034C284.973 259.947 285.265 259.969 285.516 260.096C285.768 260.224 285.958 260.446 286.046 260.714L287.697 265.766Z" stroke="#FEFBFF" stroke-width="0.53144" stroke-linecap="round" stroke-linejoin="round"/>
<g id="Group 694">
<path id="Vector_2" d="M291.076 291.498C293.866 290.586 295.389 287.585 294.477 284.796C293.565 282.006 290.564 280.483 287.774 281.395C284.984 282.307 283.462 285.308 284.374 288.098C285.286 290.888 288.287 292.41 291.076 291.498Z" stroke="#FEFBFF" stroke-width="0.53144" stroke-linecap="round" stroke-linejoin="round"/>
<path id="Vector_3" d="M287.46 285.412C287.468 285.036 287.61 284.674 287.859 284.392C288.108 284.11 288.449 283.925 288.822 283.87C289.194 283.815 289.574 283.894 289.894 284.093C290.214 284.291 290.454 284.596 290.57 284.954C290.9 285.965 289.55 286.965 289.55 286.965" stroke="#FEFBFF" stroke-width="0.53144" stroke-linecap="round" stroke-linejoin="round"/>
<path id="Vector_4" d="M290.25 288.972L290.256 288.971" stroke="#FEFBFF" stroke-width="0.53144" stroke-linecap="round" stroke-linejoin="round"/>
</g>
<text id="Est&#195;&#161; com d&#195;&#186;vidas? Nosso app pode te ajudar." transform="translate(291.291 254.526) rotate(-18.1017)" fill="#FEFBFF" xml:space="preserve" style="white-space: pre" font-family="Source Sans Pro" font-size="4.78296" letter-spacing="0em"><tspan x="0" y="5.20034">Est&#xe1; com d&#xfa;vidas?&#10;</tspan><tspan x="0" y="12.2003">Nosso app pode te ajudar.</tspan></text>
<text id="Fale com a gente: 0800 591 2117" transform="translate(298.227 275.742) rotate(-18.1017)" fill="#FEFBFF" xml:space="preserve" style="white-space: pre" font-family="Source Sans Pro" font-size="4.78296" letter-spacing="0em"><tspan x="0" y="5.20034">Fale com a gente:&#10;</tspan><tspan x="0" y="12.2003">0800 591 2117</tspan></text>
<circle id="Ellipse 170" cx="203.381" cy="343.927" r="16.7403" transform="rotate(-18.1017 203.381 343.927)" fill="#D9D9D9"/>
<path id="Subtract" fill-rule="evenodd" clip-rule="evenodd" d="M177.285 323.104L169.649 325.6C155.175 330.331 147.277 345.9 152.008 360.374C156.74 374.849 172.309 382.747 186.783 378.015L194.515 375.488C204.233 350.045 201.792 338.143 177.285 323.104Z" fill="url(#paint3_linear_835_645)"/>
</g>
<g id="card-frente" filter="url(#filter0_ddddd_835_645)">
<rect id="Rectangle 981" x="21" y="65.7529" width="383.699" height="243.399" rx="14.3559" transform="rotate(-9.11008 21 65.7529)" fill="url(#paint4_linear_835_645)"/>
<g id="Mask group_2">
<mask id="mask1_835_645" style="mask-type:alpha" maskUnits="userSpaceOnUse" x="23" y="7" width="414" height="297">
<rect id="Rectangle 982" x="21" y="65.7522" width="383.699" height="243.399" rx="14.3559" transform="rotate(-9.11008 21 65.7522)" fill="url(#paint5_linear_835_645)"/>
</mask>
<g mask="url(#mask1_835_645)">
<ellipse id="Ellipse 180_2" cx="358.524" cy="30.1767" rx="130.962" ry="65.1363" transform="rotate(20.6729 358.524 30.1767)" fill="#26498F"/>
<ellipse id="Ellipse 181_2" cx="91.524" cy="295.177" rx="130.962" ry="65.1363" transform="rotate(20.6729 91.524 295.177)" fill="#26498F"/>
</g>
</g>
<text id="Aldovani H coSTA" transform="translate(229.045 53.9209) rotate(-9.11008)" fill="#FEFBFF" xml:space="preserve" style="white-space: pre" font-family="Montserrat" font-size="12.7546" font-weight="600" letter-spacing="0.1em"><tspan x="0" y="13.5725">ALDOVANI H COSTA</tspan></text>
<g id="Group 696">
<circle id="Ellipse 171" cx="349.462" cy="205.096" r="24.3136" transform="rotate(-9.11008 349.462 205.096)" fill="#E71924"/>
<circle id="Ellipse 172" cx="378.72" cy="200.404" r="24.3136" transform="rotate(-9.11008 378.72 200.404)" fill="#F99F19"/>
<path id="Intersect_2" fill-rule="evenodd" clip-rule="evenodd" d="M361.024 183.619C367.431 187.094 372.212 193.399 373.455 201.152C374.698 208.905 372.129 216.388 367.13 221.692C360.723 218.217 355.942 211.912 354.699 204.159C353.456 196.406 356.025 188.923 361.024 183.619Z" fill="#F26520"/>
</g>
<g id="Group 695">
<rect id="Rectangle 344" x="74.9966" y="132.551" width="52.0464" height="36.8503" rx="3.22915" transform="rotate(-9.11008 74.9966 132.551)" fill="url(#paint6_linear_835_645)" stroke="#211F21" stroke-width="1.1397"/>
<path id="Vector 9" d="M77.0781 144.337L92.4576 141.871" stroke="#211F21" stroke-width="1.06288" stroke-linecap="round"/>
<path id="Vector 10" d="M78.9434 155.965L93.9856 153.553" stroke="#211F21" stroke-width="1.06288" stroke-linecap="round"/>
<path id="Vector 11" d="M114.953 150.191L129.957 147.785" stroke="#211F21" stroke-width="1.06288" stroke-linecap="round"/>
<path id="Vector 12" d="M112.924 138.974L128.154 136.531" stroke="#211F21" stroke-width="1.06288" stroke-linecap="round"/>
<circle id="Ellipse 12" cx="101.564" cy="133.87" r="1.1397" transform="rotate(-9.11008 101.564 133.87)" fill="#211F21"/>
<g id="Vector 13">
<path d="M158.215 145.918C159.867 138.53 159.554 134.559 155.339 127.983C154.891 127.285 155.118 126.608 155.473 126.423C155.828 126.237 156.428 126.269 156.906 126.962C161.758 133.997 162.222 138.303 160.222 146.438C159.967 147.248 159.28 147.455 158.811 147.241C158.263 146.991 158.075 146.542 158.215 145.918Z" fill="#FEFBFF"/>
<path d="M151.49 129.177C151.145 129.425 151.019 130.175 151.573 130.896C154.939 135.741 155.317 138.761 153.769 144.587C153.593 145.178 153.853 145.757 154.354 145.84C154.947 145.937 155.374 145.459 155.547 144.879C157.398 138.654 156.939 135.322 153.111 129.687C152.757 129.167 152.008 128.806 151.49 129.177Z" fill="#FEFBFF"/>
<path d="M148.13 132.217C147.598 132.495 147.598 133.134 147.996 133.778C150.065 137.127 150.623 139.102 149.469 142.968C149.232 143.647 149.228 144.328 149.897 144.438C150.567 144.548 150.972 144.14 151.12 143.665C152.631 138.915 151.74 136.531 149.316 132.412C149.109 132.06 148.663 131.939 148.13 132.217Z" fill="#FEFBFF"/>
<path d="M144.432 134.349C143.93 134.815 143.941 135.396 144.545 136.255C145.811 138.079 145.968 139.193 145.357 141.319C145.066 142.26 145.095 143.285 145.876 143.352C146.656 143.419 146.946 143.099 147.196 141.986C147.712 139.079 147.556 137.507 146.053 134.859C145.694 134.167 145.122 133.854 144.432 134.349Z" fill="#FEFBFF"/>
</g>
<path id="Vector 14" d="M110.176 134.797C107.951 130.127 104.877 128.144 100.563 128.836C95.3119 129.678 94.4689 133.915 92.4276 141.683C95.2498 146.157 95.6861 148.74 94.3223 153.499C99.2308 162.606 102.198 165.177 106.465 164.441C112.092 163.539 112.929 158.514 114.766 150.221C112.437 146.086 111.875 143.689 112.68 139.052" stroke="#211F21" stroke-width="1.06288" stroke-linecap="round"/>
</g>
<text id="NullBank" transform="translate(90.4746 233.843) rotate(-9.11008)" fill="white" xml:space="preserve" style="white-space: pre" font-family="DM Sans" font-size="34.0121" font-weight="bold" letter-spacing="0em"><tspan x="0" y="28.5981">NullBank</tspan></text>
</g>
</g>
<defs>
<filter id="filter0_ddddd_835_645" x="0.251953" y="0.252441" width="488.893" height="432.578" filterUnits="userSpaceOnUse" color-interpolation-filters="sRGB">
<feFlood flood-opacity="0" result="BackgroundImageFix"/>
<feColorMatrix in="SourceAlpha" type="matrix" values="0 0 0 0 0 0 0 0 0 0 0 0 0 0 0 0 0 0 127 0" result="hardAlpha"/>
<feOffset/>
<feColorMatrix type="matrix" values="0 0 0 0 0 0 0 0 0 0 0 0 0 0 0 0 0 0 0.15 0"/>
<feBlend mode="normal" in2="BackgroundImageFix" result="effect1_dropShadow_835_645"/>
<feColorMatrix in="SourceAlpha" type="matrix" values="0 0 0 0 0 0 0 0 0 0 0 0 0 0 0 0 0 0 127 0" result="hardAlpha"/>
<feOffset dx="1" dy="6"/>
<feGaussianBlur stdDeviation="6.5"/>
<feColorMatrix type="matrix" values="0 0 0 0 0 0 0 0 0 0 0 0 0 0 0 0 0 0 0.15 0"/>
<feBlend mode="normal" in2="effect1_dropShadow_835_645" result="effect2_dropShadow_835_645"/>
<feColorMatrix in="SourceAlpha" type="matrix" values="0 0 0 0 0 0 0 0 0 0 0 0 0 0 0 0 0 0 127 0" result="hardAlpha"/>
<feOffset dx="4" dy="23"/>
<feGaussianBlur stdDeviation="11.5"/>
<feColorMatrix type="matrix" values="0 0 0 0 0 0 0 0 0 0 0 0 0 0 0 0 0 0 0.13 0"/>
<feBlend mode="normal" in2="effect2_dropShadow_835_645" result="effect3_dropShadow_835_645"/>
<feColorMatrix in="SourceAlpha" type="matrix" values="0 0 0 0 0 0 0 0 0 0 0 0 0 0 0 0 0 0 127 0" result="hardAlpha"/>
<feOffset dx="9" dy="52"/>
<feGaussianBlur stdDeviation="16"/>
<feColorMatrix type="matrix" values="0 0 0 0 0 0 0 0 0 0 0 0 0 0 0 0 0 0 0.08 0"/>
<feBlend mode="normal" in2="effect3_dropShadow_835_645" result="effect4_dropShadow_835_645"/>
<feColorMatrix in="SourceAlpha" type="matrix" values="0 0 0 0 0 0 0 0 0 0 0 0 0 0 0 0 0 0 127 0" result="hardAlpha"/>
<feOffset dx="16" dy="92"/>
<feGaussianBlur stdDeviation="18.5"/>
<feColorMatrix type="matrix" values="0 0 0 0 0 0 0 0 0 0 0 0 0 0 0 0 0 0 0.02 0"/>
<feBlend mode="normal" in2="effect4_dropShadow_835_645" result="effect5_dropShadow_835_645"/>
<feBlend mode="normal" in="SourceGraphic" in2="effect5_dropShadow_835_645" result="shape"/>
</filter>
<linearGradient id="paint0_linear_835_645" x1="84.785" y1="202.487" x2="494.434" y2="489.973" gradientUnits="userSpaceOnUse">
<stop stop-color="#3777F4"/>
<stop offset="1" stop-color="#1B2A4C"/>
</linearGradient>
<linearGradient id="paint1_linear_835_645" x1="84.785" y1="202.487" x2="494.434" y2="489.973" gradientUnits="userSpaceOnUse">
<stop stop-color="#3777F4"/>
<stop offset="1" stop-color="#1B2A4C"/>
</linearGradient>
<linearGradient id="paint2_linear_835_645" x1="187.551" y1="389.436" x2="210.669" y2="337.355" gradientUnits="userSpaceOnUse">
<stop stop-color="#F6F3F7"/>
<stop offset="1" stop-color="#D6D6D6"/>
</linearGradient>
<linearGradient id="paint3_linear_835_645" x1="180.384" y1="324.886" x2="170.168" y2="376.589" gradientUnits="userSpaceOnUse">
<stop stop-color="#F5F5F5"/>
<stop offset="1" stop-color="#D6D6D6"/>
</linearGradient>
<linearGradient id="paint4_linear_835_645" x1="11.785" y1="44.271" x2="421.434" y2="331.758" gradientUnits="userSpaceOnUse">
<stop stop-color="#3777F4"/>
<stop offset="1" stop-color="#1B2A4C"/>
</linearGradient>
<linearGradient id="paint5_linear_835_645" x1="11.785" y1="44.2702" x2="421.434" y2="331.757" gradientUnits="userSpaceOnUse">
<stop stop-color="#3777F4"/>
<stop offset="1" stop-color="#1B2A4C"/>
</linearGradient>
<linearGradient id="paint6_linear_835_645" x1="123.051" y1="137.328" x2="78.41" y2="167.088" gradientUnits="userSpaceOnUse">
<stop stop-color="#F4F4F4"/>
<stop offset="1" stop-color="#D6D6D6"/>
</linearGradient>
</defs>
</svg>
