<svg width="48" height="48" viewBox="0 0 48 48" fill="none" xmlns="http://www.w3.org/2000/svg">
<path d="M11 16C13.7614 16 16 13.7614 16 11C16 8.23858 13.7614 6 11 6C8.23858 6 6 8.23858 6 11C6 13.7614 8.23858 16 11 16Z" fill="url(#paint0_linear_848_343)" stroke="#F8F9FA" stroke-width="2" stroke-linecap="round" stroke-linejoin="round"/>
<path d="M37 42C39.7614 42 42 39.7614 42 37C42 34.2386 39.7614 32 37 32C34.2386 32 32 34.2386 32 37C32 39.7614 34.2386 42 37 42Z" fill="url(#paint1_linear_848_343)" stroke="#F8F9FA" stroke-width="2" stroke-linecap="round" stroke-linejoin="round"/>
<path d="M42 6L6 42L42 6Z" fill="url(#paint2_linear_848_343)"/>
<path d="M42 6L6 42" stroke="url(#paint3_linear_848_343)" stroke-width="2" stroke-linecap="round" stroke-linejoin="round"/>
<defs>
<linearGradient id="paint0_linear_848_343" x1="5.75984" y1="5.11742" x2="19.0587" y2="11.0378" gradientUnits="userSpaceOnUse">
<stop stop-color="#3777F4"/>
<stop offset="1" stop-color="#1B2A4C"/>
</linearGradient>
<linearGradient id="paint1_linear_848_343" x1="31.7598" y1="31.1174" x2="45.0587" y2="37.0378" gradientUnits="userSpaceOnUse">
<stop stop-color="#3777F4"/>
<stop offset="1" stop-color="#1B2A4C"/>
</linearGradient>
<linearGradient id="paint2_linear_848_343" x1="5.13542" y1="2.82271" x2="53.0112" y2="24.136" gradientUnits="userSpaceOnUse">
<stop stop-color="#3777F4"/>
<stop offset="1" stop-color="#1B2A4C"/>
</linearGradient>
<linearGradient id="paint3_linear_848_343" x1="5.13542" y1="2.82271" x2="53.0112" y2="24.136" gradientUnits="userSpaceOnUse">
<stop stop-color="#3777F4"/>
<stop offset="1" stop-color="#1B2A4C"/>
</linearGradient>
</defs>
</svg>
