<svg width="378" height="377" viewBox="0 0 378 377" fill="none" xmlns="http://www.w3.org/2000/svg">
<rect x="0.57251" width="377.427" height="377" rx="80.9186" fill="#5C7CFA"/>
<path d="M60.7471 239.813V134.813H79.9471L129.297 208.763V134.813H148.497V239.813H129.297L79.9471 166.013V239.813H60.7471ZM196.303 241.613C187.003 241.613 179.803 238.713 174.703 232.913C169.703 227.113 167.203 218.613 167.203 207.413V165.413H186.253V205.613C186.253 212.013 187.553 216.913 190.153 220.313C192.753 223.713 196.853 225.413 202.453 225.413C207.753 225.413 212.103 223.513 215.503 219.713C219.003 215.913 220.753 210.613 220.753 203.813V165.413H239.953V239.813H223.003L221.503 227.213C219.203 231.613 215.853 235.113 211.453 237.713C207.153 240.313 202.103 241.613 196.303 241.613ZM259.662 239.813V131.813H278.862V239.813H259.662ZM298.481 239.813V131.813H317.681V239.813H298.481Z" fill="white"/>
</svg>
