<svg width="40" height="40" viewBox="0 0 40 40" fill="none" xmlns="http://www.w3.org/2000/svg">
<path d="M31.1947 30.5974C30.4233 30.6002 29.659 30.4501 28.946 30.1558C28.233 29.8615 27.5853 29.4288 27.0405 28.8827L21.0398 22.8782C20.8275 22.6753 20.5452 22.562 20.2515 22.562C19.9579 22.562 19.6755 22.6753 19.4633 22.8782L13.4423 28.8992C12.8978 29.4461 12.2503 29.8796 11.5373 30.1748C10.8242 30.47 10.0598 30.6209 9.28807 30.6189H8.11328L15.7171 38.2228C16.8575 39.3608 18.4028 39.9999 20.0139 39.9999C21.625 39.9999 23.1703 39.3608 24.3107 38.2228L31.9297 30.6025L31.1947 30.5974Z" fill="url(#paint0_linear_848_116)"/>
<path d="M9.28934 9.37775C10.0611 9.37569 10.8255 9.52662 11.5386 9.8218C12.2516 10.117 12.8991 10.5506 13.4436 11.0975L19.4645 17.1197C19.6738 17.3284 19.9573 17.4455 20.2528 17.4455C20.5483 17.4455 20.8318 17.3284 21.0411 17.1197L27.0405 11.1203C27.5845 10.5727 28.2319 10.1386 28.945 9.84314C29.6581 9.54771 30.4228 9.39684 31.1947 9.3993H31.9171L24.298 1.78026C23.7338 1.21586 23.064 0.768145 22.3267 0.462683C21.5895 0.157221 20.7993 0 20.0012 0C19.2032 0 18.413 0.157221 17.6757 0.462683C16.9385 0.768145 16.2686 1.21586 15.7044 1.78026L8.11328 9.37775H9.28934Z" fill="url(#paint1_linear_848_116)"/>
<path d="M38.2197 15.7029L33.6156 11.0988C33.5118 11.1412 33.4008 11.1636 33.2887 11.1647H31.1951C30.1056 11.1674 29.0613 11.6001 28.2891 12.3686L22.2897 18.3642C21.7494 18.9035 21.0172 19.2065 20.2538 19.2065C19.4904 19.2065 18.7582 18.9035 18.2179 18.3642L12.1956 12.3458C11.4237 11.5768 10.3793 11.1437 9.2897 11.1406H6.7196C6.61368 11.1382 6.50901 11.1172 6.41038 11.0785L1.77711 15.7029C0.639117 16.8433 0 18.3886 0 19.9997C0 21.6108 0.639117 23.1561 1.77711 24.2965L6.40024 28.9196C6.49866 28.8802 6.60346 28.8592 6.70947 28.8575H9.2897C10.3793 28.8543 11.4236 28.4212 12.1956 27.6523L18.2166 21.6313C19.3052 20.544 21.2024 20.544 22.2897 21.6313L28.2891 27.6295C29.0613 28.398 30.1056 28.8307 31.1951 28.8334H33.2887C33.4009 28.8342 33.5119 28.8566 33.6156 28.8993L38.2197 24.2952C38.7841 23.731 39.2319 23.0612 39.5373 22.3239C39.8428 21.5867 40 20.7965 40 19.9984C40 19.2004 39.8428 18.4102 39.5373 17.6729C39.2319 16.9357 38.7841 16.2658 38.2197 15.7016" fill="url(#paint2_linear_848_116)"/>
<defs>
<linearGradient id="paint0_linear_848_116" x1="15.5221" y1="20.215" x2="23.1651" y2="45.919" gradientUnits="userSpaceOnUse">
<stop stop-color="#4C6EF5"/>
<stop offset="1" stop-color="#1E325F"/>
</linearGradient>
<linearGradient id="paint1_linear_848_116" x1="15.5182" y1="-2.34804" x2="23.1707" y2="23.3632" gradientUnits="userSpaceOnUse">
<stop stop-color="#4C6EF5"/>
<stop offset="1" stop-color="#1E325F"/>
</linearGradient>
<linearGradient id="paint2_linear_848_116" x1="12.4432" y1="8.67721" x2="17.4633" y2="36.3915" gradientUnits="userSpaceOnUse">
<stop stop-color="#4C6EF5"/>
<stop offset="1" stop-color="#1E325F"/>
</linearGradient>
</defs>
</svg>
