<svg width="40" height="40" viewBox="0 0 40 40" fill="none" xmlns="http://www.w3.org/2000/svg">
<path d="M28.6602 30.8491C29.1546 31.0531 29.6708 31.1958 30.1974 31.2747L23.7812 37.6919C23.7811 37.692 23.781 37.6922 23.7808 37.6923C22.781 38.6897 21.4265 39.2499 20.0142 39.2499C18.6018 39.2499 17.247 38.6896 16.2472 37.6919L9.89744 31.3421C10.5589 31.2823 11.2087 31.1227 11.8245 30.8678C12.6288 30.5348 13.3592 30.0458 13.9735 29.429C13.9737 29.4288 13.9739 29.4286 13.9741 29.4284L19.9864 23.416C20.0586 23.3492 20.1533 23.312 20.2518 23.312C20.3503 23.312 20.445 23.3492 20.5172 23.416L26.5099 29.4125C27.1247 30.0287 27.8555 30.5169 28.6602 30.8491Z" stroke="#4C6EF5" stroke-width="1.5"/>
<path d="M9.28965 9.26182V8.62775H9.28875C9.28838 8.62775 9.28801 8.62776 9.28764 8.62776L9.28934 9.26212L9.28965 9.26182ZM9.28965 9.26182V9.37775M23.7679 2.31049L23.768 2.31059L30.1822 8.72482C29.6602 8.80462 29.1484 8.94718 28.6582 9.15025C27.8538 9.4835 27.1236 9.9731 26.5098 10.5907C26.5094 10.591 26.5091 10.5914 26.5087 10.5917L20.5119 16.5886C20.5117 16.5887 20.5116 16.5888 20.5114 16.589C20.4428 16.6572 20.3499 16.6955 20.2531 16.6955C20.1562 16.6955 20.0633 16.6572 19.9946 16.5888C19.9945 16.5888 19.9944 16.5887 19.9943 16.5886L13.9754 10.5684C13.9751 10.5681 13.9749 10.5679 13.9747 10.5676C13.3604 9.95079 12.6301 9.46178 11.8258 9.12883L11.5389 9.8218L11.8258 9.12883C11.2093 8.87363 10.5588 8.71399 9.89663 8.65432L16.2352 2.31049C16.2352 2.31045 16.2353 2.31041 16.2353 2.31037C16.7298 1.8157 17.3169 1.4233 17.9631 1.15557C18.6094 0.887813 19.302 0.75 20.0015 0.75C20.7011 0.75 21.3937 0.887813 22.04 1.15557C22.6862 1.42332 23.2734 1.81577 23.7679 2.31049Z" stroke="#4C6EF5" stroke-width="1.5"/>
<mask id="path-3-inside-1_389_175" fill="white">
<path d="M38.2197 15.7029L33.6156 11.0988C33.5118 11.1412 33.4008 11.1636 33.2887 11.1647H31.1951C30.1056 11.1674 29.0613 11.6001 28.2891 12.3686L22.2897 18.3642C21.7494 18.9035 21.0172 19.2065 20.2538 19.2065C19.4904 19.2065 18.7582 18.9035 18.2179 18.3642L12.1956 12.3458C11.4237 11.5768 10.3793 11.1437 9.2897 11.1406H6.7196C6.61368 11.1382 6.50901 11.1172 6.41038 11.0785L1.77711 15.7029C0.639117 16.8433 0 18.3886 0 19.9997C0 21.6108 0.639117 23.1561 1.77711 24.2965L6.40024 28.9196C6.49866 28.8802 6.60346 28.8592 6.70947 28.8575H9.2897C10.3793 28.8543 11.4236 28.4212 12.1956 27.6523L18.2166 21.6313C19.3052 20.544 21.2024 20.544 22.2897 21.6313L28.2891 27.6295C29.0613 28.398 30.1056 28.8307 31.1951 28.8334H33.2887C33.4009 28.8342 33.5119 28.8566 33.6156 28.8993L38.2197 24.2952C38.7841 23.731 39.2319 23.0612 39.5373 22.3239C39.8428 21.5867 40 20.7965 40 19.9984C40 19.2004 39.8428 18.4102 39.5373 17.6729C39.2319 16.9357 38.7841 16.2658 38.2197 15.7016"/>
</mask>
<path d="M33.6156 11.0988L34.6763 10.0381L33.9712 9.33299L33.0481 9.71027L33.6156 11.0988ZM33.2887 11.1647V12.6647H33.296L33.3033 12.6646L33.2887 11.1647ZM31.1951 11.1647V9.66466L31.1913 9.66467L31.1951 11.1647ZM28.2891 12.3686L27.231 11.3055L27.2288 11.3076L28.2891 12.3686ZM22.2897 18.3642L23.3494 19.4259L23.35 19.4252L22.2897 18.3642ZM18.2179 18.3642L17.1575 19.4252L17.1582 19.4259L18.2179 18.3642ZM12.1956 12.3458L13.256 11.2848L13.2543 11.2831L12.1956 12.3458ZM9.2897 11.1406L9.29392 9.64059H9.2897V11.1406ZM6.7196 11.1406L6.68584 12.6402L6.70272 12.6406H6.7196V11.1406ZM6.41038 11.0785L6.95819 9.6821L6.04502 9.32386L5.35074 10.0168L6.41038 11.0785ZM1.77711 15.7029L0.717469 14.6412L0.715327 14.6434L1.77711 15.7029ZM0 19.9997H-1.5H0ZM1.77711 24.2965L0.715326 25.356L0.716455 25.3571L1.77711 24.2965ZM6.40024 28.9196L5.33958 29.9803L6.03924 30.6799L6.95782 30.3121L6.40024 28.9196ZM6.70947 28.8575V27.3575H6.69783L6.6862 27.3577L6.70947 28.8575ZM9.2897 28.8575V30.3575L9.2941 30.3575L9.2897 28.8575ZM12.1956 27.6523L13.2541 28.7151L13.2563 28.713L12.1956 27.6523ZM18.2166 21.6313L17.1566 20.5701L17.1559 20.5707L18.2166 21.6313ZM22.2897 21.6313L21.2291 22.692L21.2292 22.6921L22.2897 21.6313ZM28.2891 27.6295L27.2286 28.6903L27.231 28.6926L28.2891 27.6295ZM31.1951 28.8334L31.1913 30.3334H31.1951V28.8334ZM33.2887 28.8334L33.2991 27.3334H33.2887V28.8334ZM33.6156 28.8993L33.0443 30.2863L33.969 30.6672L34.6763 29.96L33.6156 28.8993ZM38.2197 24.2952L37.1593 23.2344L37.1591 23.2346L38.2197 24.2952ZM39.2804 14.6422L34.6763 10.0381L32.555 12.1594L37.1591 16.7635L39.2804 14.6422ZM33.0481 9.71027C33.1199 9.68095 33.1965 9.6655 33.274 9.66474L33.3033 12.6646C33.6052 12.6616 33.9037 12.6015 34.1831 12.4873L33.0481 9.71027ZM33.2887 9.66467H31.1951V12.6647H33.2887V9.66467ZM31.1913 9.66467C29.7066 9.66839 28.2833 10.2581 27.231 11.3055L29.3473 13.4318C29.8393 12.9421 30.5047 12.6664 31.1988 12.6647L31.1913 9.66467ZM27.2288 11.3076L21.2294 17.3032L23.35 19.4252L29.3495 13.4296L27.2288 11.3076ZM21.23 17.3026C20.9709 17.5612 20.6198 17.7065 20.2538 17.7065V20.7065C21.4145 20.7065 22.5279 20.2459 23.3494 19.4259L21.23 17.3026ZM20.2538 17.7065C19.8877 17.7065 19.5366 17.5612 19.2776 17.3026L17.1582 19.4259C17.9797 20.2459 19.093 20.7065 20.2538 20.7065V17.7065ZM19.2782 17.3032L13.256 11.2848L11.1353 13.4068L17.1575 19.4252L19.2782 17.3032ZM13.2543 11.2831C12.2022 10.2351 10.7789 9.64477 9.29392 9.64059L9.28548 12.6406C9.97974 12.6425 10.6451 12.9185 11.137 13.4085L13.2543 11.2831ZM9.2897 9.64059H6.7196V12.6406H9.2897V9.64059ZM6.75337 9.64097C6.82353 9.64255 6.89286 9.65647 6.95819 9.6821L5.86257 12.4749C6.12516 12.5779 6.40384 12.6339 6.68584 12.6402L6.75337 9.64097ZM5.35074 10.0168L0.717471 14.6412L2.83676 16.7646L7.47003 12.1402L5.35074 10.0168ZM0.715327 14.6434C-0.703286 16.065 -1.5 17.9913 -1.5 19.9997H1.5C1.5 18.7859 1.98152 17.6216 2.8389 16.7624L0.715327 14.6434ZM-1.5 19.9997C-1.5 22.008 -0.703286 23.9344 0.715327 25.356L2.8389 23.237C1.98152 22.3777 1.5 21.2135 1.5 19.9997H-1.5ZM0.716455 25.3571L5.33958 29.9803L7.4609 27.859L2.83778 23.2358L0.716455 25.3571ZM6.95782 30.3121C6.88617 30.3408 6.80988 30.3561 6.73273 30.3573L6.6862 27.3577C6.39705 27.3622 6.11116 27.4196 5.84267 27.5271L6.95782 30.3121ZM6.70947 30.3575H9.2897V27.3575H6.70947V30.3575ZM9.2941 30.3575C10.7789 30.3532 12.202 29.7629 13.2541 28.7151L11.1371 26.5895C10.6451 27.0795 9.97965 27.3555 9.28529 27.3575L9.2941 30.3575ZM13.2563 28.713L19.2773 22.692L17.1559 20.5707L11.135 26.5917L13.2563 28.713ZM19.2766 22.6926C19.7799 22.1899 20.7278 22.1908 21.2291 22.692L23.3504 20.5707C21.6769 18.8972 18.8305 18.8981 17.1566 20.5701L19.2766 22.6926ZM21.2292 22.6921L27.2286 28.6903L29.3497 26.5687L23.3503 20.5706L21.2292 22.6921ZM27.231 28.6926C28.2833 29.7401 29.7066 30.3297 31.1913 30.3334L31.1988 27.3334C30.5047 27.3317 29.8393 27.056 29.3473 26.5664L27.231 28.6926ZM31.1951 30.3334H33.2887V27.3334H31.1951V30.3334ZM33.2782 30.3334C33.1979 30.3328 33.1185 30.3168 33.0443 30.2863L34.187 27.5124C33.9052 27.3964 33.6038 27.3356 33.2991 27.3335L33.2782 30.3334ZM34.6763 29.96L39.2804 25.3559L37.1591 23.2346L32.555 27.8387L34.6763 29.96ZM39.2802 25.3561C39.9839 24.6526 40.5422 23.8174 40.9231 22.8981L38.1516 21.7498C37.9215 22.305 37.5843 22.8095 37.1593 23.2344L39.2802 25.3561ZM40.9231 22.8981C41.304 21.9788 41.5 20.9935 41.5 19.9984H38.5C38.5 20.5994 38.3816 21.1945 38.1516 21.7498L40.9231 22.8981ZM41.5 19.9984C41.5 19.0034 41.304 18.018 40.9231 17.0988L38.1516 18.2471C38.3816 18.8023 38.5 19.3974 38.5 19.9984H41.5ZM40.9231 17.0988C40.5422 16.1795 39.9839 15.3442 39.2802 14.6408L37.1593 16.7625C37.5843 17.1874 37.9215 17.6918 38.1516 18.2471L40.9231 17.0988Z" fill="#4C6EF5" mask="url(#path-3-inside-1_389_175)"/>
</svg>
