<svg width="32" height="24" viewBox="0 0 32 24" fill="none" xmlns="http://www.w3.org/2000/svg">
<path d="M8.58537 23.8049C12.2927 23.8049 14.9756 21.9699 16.1951 18.9447C17.5122 21.9699 20.3902 23.8049 23.8049 23.8049C28.7805 23.8049 32 20.3333 32 15.5724C32 11.3073 29.0244 7.83577 24.7805 7.83577C22.6829 7.83577 20.6341 8.53008 20.0976 9.22439C20.0976 8.28211 20.7317 7.09187 21.9512 5.65366C24.3415 2.82683 29.4146 1.38862 31.9024 1.38862L30.9268 0C23.4146 0 16.9756 4.51301 15.5122 11.1089C14.1463 8.92683 12.1463 7.83577 9.56098 7.83577C7.46342 7.83577 5.41463 8.53008 4.87805 9.22439C4.87805 8.28211 5.5122 7.09187 6.73171 5.65366C9.12195 2.82683 14.1951 1.38862 16.6829 1.38862L15.7073 0C12.9756 0 10.2927 0.644715 7.80488 1.88455C2.78049 4.41382 0 8.77805 0 13.8862C0 20.2837 3.70732 23.8049 8.58537 23.8049Z" fill="#4C6EF5"/>
</svg>
