<svg width="523" height="570" viewBox="0 0 523 570" fill="none" xmlns="http://www.w3.org/2000/svg">
<g id="cards">
<g id="card-verso">
<rect id="Rectangle 978" x="523" y="60" width="383.699" height="243.399" rx="14.3559" transform="rotate(102.76 523 60)" fill="url(#paint0_linear_861_205)"/>
<g id="Mask group">
<mask id="mask0_861_205" style="mask-type:alpha" maskUnits="userSpaceOnUse" x="203" y="9" width="318" height="423">
<rect id="Rectangle 978_2" x="523" y="60" width="383.699" height="243.399" rx="14.3559" transform="rotate(102.76 523 60)" fill="url(#paint1_linear_861_205)"/>
</mask>
<g mask="url(#mask0_861_205)">
<ellipse id="Ellipse 181" cx="273.858" cy="24.7283" rx="130.962" ry="65.1363" transform="rotate(141.535 273.858 24.7283)" fill="#26498F"/>
<ellipse id="Ellipse 180" cx="430.409" cy="397.867" rx="130.962" ry="65.1363" transform="rotate(141.535 430.409 397.867)" fill="#26498F"/>
</g>
</g>
<rect id="Rectangle 979" x="505.896" y="56.1265" width="383.699" height="57.0467" transform="rotate(102.76 505.896 56.1265)" fill="#212529"/>
<rect id="Rectangle 980" x="403.043" y="45.9131" width="83.6685" height="55.1452" rx="27.5726" transform="rotate(102.76 403.043 45.9131)" fill="url(#paint2_linear_861_205)"/>
<text id="5032 9334 3764 9846" transform="translate(336.699 30.8882) rotate(102.76)" fill="#FEFBFF" xml:space="preserve" style="white-space: pre" font-family="Poppins" font-size="19.1318" letter-spacing="0.03em"><tspan x="0" y="20.1961">5032 9334 3764 9846</tspan></text>
<text id="gold" transform="translate(433.594 74.6265) rotate(102.76)" fill="#F7F2FA" xml:space="preserve" style="white-space: pre" font-family="Poppins" font-size="19.1318" font-weight="600" letter-spacing="0em"><tspan x="0" y="20.1961">gold</tspan></text>
<text id="02/17" transform="translate(301.189 45.7312) rotate(102.76)" fill="#FEFBFF" xml:space="preserve" style="white-space: pre" font-family="Poppins" font-size="9.56591" letter-spacing="0em"><tspan x="0" y="9.84807">02/17</tspan></text>
<text id="02/20" transform="translate(289.217 98.6006) rotate(102.76)" fill="#FEFBFF" xml:space="preserve" style="white-space: pre" font-family="Poppins" font-size="9.56591" letter-spacing="0em"><tspan x="0" y="9.84807">02/20</tspan></text>
<text id="123" transform="translate(275.719 158.206) rotate(102.76)" fill="#FEFBFF" xml:space="preserve" style="white-space: pre" font-family="Poppins" font-size="9.56591" letter-spacing="0em"><tspan x="0" y="9.84807">123</tspan></text>
<g id="Group 693">
<text id="cirrus." transform="translate(231.545 334.014) rotate(102.76)" fill="#FBF9FC" xml:space="preserve" style="white-space: pre" font-family="Poppins" font-size="6.90871" font-weight="600" letter-spacing="0em"><tspan x="0" y="7.41805">cirrus.</tspan></text>
<circle id="Ellipse 7" cx="247.897" cy="338.806" r="16.4746" transform="rotate(102.76 247.897 338.806)" fill="#0167B2"/>
<circle id="Ellipse 8" cx="243.436" cy="358.502" r="16.4746" transform="rotate(102.76 243.436 358.502)" fill="#02A1E2"/>
<path id="Intersect" fill-rule="evenodd" clip-rule="evenodd" d="M233.033 345.724C235.104 350.201 239.158 353.702 244.341 354.876C249.524 356.05 254.69 354.637 258.488 351.488C256.417 347.011 252.364 343.51 247.181 342.336C241.997 341.162 236.831 342.575 233.033 345.724Z" fill="#207CBD"/>
</g>
<text id="member since" transform="translate(304.328 24.6475) rotate(102.76)" fill="#FEFBFF" xml:space="preserve" style="white-space: pre" font-family="Poppins" font-size="3.18864" letter-spacing="0.1em"><tspan x="0" y="3.11602">MEMBER&#10;</tspan><tspan x="0" y="7.11602">SINCE</tspan></text>
<text id="valid thru" transform="translate(291.184 82.6978) rotate(102.76)" fill="#FEFBFF" xml:space="preserve" style="white-space: pre" font-family="Poppins" font-size="3.18864" letter-spacing="0.1em"><tspan x="0" y="3.11602">VALID&#10;</tspan><tspan x="0" y="7.11602">THRU</tspan></text>
<text id="security code" transform="translate(279.209 135.567) rotate(102.76)" fill="#FEFBFF" xml:space="preserve" style="white-space: pre" font-family="Poppins" font-size="3.18864" letter-spacing="0.1em"><tspan x="0" y="3.11602">SECURITY&#10;</tspan><tspan x="0" y="7.11602">CODE</tspan></text>
<path id="Vector" d="M387.761 204.831C387.486 204.768 387.247 204.599 387.097 204.361C386.947 204.123 386.897 203.834 386.959 203.559L388.368 197.339L386.764 194.797L395.057 196.675C395.332 196.737 395.571 196.906 395.721 197.144C395.872 197.383 395.921 197.671 395.859 197.946L394.216 205.202C394.153 205.477 393.985 205.716 393.746 205.867C393.508 206.017 393.219 206.067 392.944 206.004L387.761 204.831Z" stroke="#FEFBFF" stroke-width="0.53144" stroke-linecap="round" stroke-linejoin="round"/>
<g id="Group 694">
<path id="Vector_2" d="M363.938 194.531C363.29 197.394 365.085 200.24 367.948 200.888C370.81 201.537 373.656 199.742 374.305 196.879C374.953 194.016 373.158 191.17 370.295 190.522C367.433 189.874 364.587 191.669 363.938 194.531Z" stroke="#FEFBFF" stroke-width="0.53144" stroke-linecap="round" stroke-linejoin="round"/>
<path id="Vector_3" d="M371.018 194.549C371.337 194.749 371.574 195.056 371.689 195.414C371.803 195.773 371.787 196.161 371.643 196.509C371.499 196.856 371.236 197.142 370.902 197.315C370.567 197.488 370.182 197.537 369.815 197.453C368.778 197.218 368.612 195.546 368.612 195.546" stroke="#FEFBFF" stroke-width="0.53144" stroke-linecap="round" stroke-linejoin="round"/>
<path id="Vector_4" d="M366.531 195.118L366.53 195.123" stroke="#FEFBFF" stroke-width="0.53144" stroke-linecap="round" stroke-linejoin="round"/>
</g>
<text id="Est&#195;&#161; com d&#195;&#186;vidas? Nosso app pode te ajudar." transform="translate(395.564 213.681) rotate(102.76)" fill="#FEFBFF" xml:space="preserve" style="white-space: pre" font-family="Poppins" font-size="4.78296" letter-spacing="0em"><tspan x="0" y="5.17403">Est&#xe1; com d&#xfa;vidas?&#10;</tspan><tspan x="0" y="12.174">Nosso app pode te ajudar.</tspan></text>
<text id="Fale com a gente: 0800 591 2117" transform="translate(373.795 208.751) rotate(102.76)" fill="#FEFBFF" xml:space="preserve" style="white-space: pre" font-family="Poppins" font-size="4.78296" letter-spacing="0em"><tspan x="0" y="5.17403">Fale com a gente:&#10;</tspan><tspan x="0" y="12.174">0800 591 2117</tspan></text>
<circle id="Ellipse 170" cx="363.919" cy="92.3588" r="16.7403" transform="rotate(102.76 363.919 92.3588)" fill="#D9D9D9"/>
<path id="Subtract" fill-rule="evenodd" clip-rule="evenodd" d="M395.179 80.6398L396.953 72.8047C400.316 57.9529 391.003 43.1865 376.151 39.8232C361.299 36.4598 346.533 45.7731 343.17 60.6249L341.373 68.5584C358.229 89.952 369.697 93.9618 395.179 80.6398Z" fill="url(#paint3_linear_861_205)"/>
</g>
<g id="card-frente" filter="url(#filter0_ddddd_861_205)">
<rect id="Rectangle 981" x="251.139" y="4.00024" width="383.699" height="243.399" rx="14.3559" transform="rotate(71.7371 251.139 4.00024)" fill="url(#paint4_linear_861_205)"/>
<g id="Mask group_2">
<mask id="mask1_861_205" style="mask-type:alpha" maskUnits="userSpaceOnUse" x="23" y="7" width="345" height="434">
<rect id="Rectangle 982" x="251.139" y="4" width="383.699" height="243.399" rx="14.3559" transform="rotate(71.7371 251.139 4)" fill="url(#paint5_linear_861_205)"/>
</mask>
<g mask="url(#mask1_861_205)">
<ellipse id="Ellipse 180_2" cx="339.951" cy="331.568" rx="130.962" ry="65.1363" transform="rotate(101.52 339.951 331.568)" fill="#26498F"/>
<ellipse id="Ellipse 181_2" cx="35.8535" cy="110.121" rx="130.962" ry="65.1363" transform="rotate(101.52 35.8535 110.121)" fill="#26498F"/>
</g>
</g>
<text id="Aldovani H coSTA" transform="translate(295.912 207.514) rotate(71.7371)" fill="#FEFBFF" xml:space="preserve" style="white-space: pre" font-family="DM Sans" font-size="12.7546" font-weight="bold" letter-spacing="0.1em"><tspan x="0" y="13.3493">ALDOVANI H COSTA</tspan></text>
<g id="Group 696">
<circle id="Ellipse 171" cx="165.818" cy="350.446" r="24.3136" transform="rotate(71.7371 165.818 350.446)" fill="#E71924"/>
<circle id="Ellipse 172" cx="175.105" cy="378.585" r="24.3136" transform="rotate(71.7371 175.105 378.585)" fill="#F99F19"/>
<path id="Intersect_2" fill-rule="evenodd" clip-rule="evenodd" d="M152.243 370.528C154.654 363.65 160.119 357.927 167.575 355.467C175.031 353.006 182.828 354.352 188.859 358.443C186.448 365.321 180.983 371.044 173.527 373.505C166.071 375.965 158.274 374.619 152.243 370.528Z" fill="#F26520"/>
</g>
<g id="Group 695">
<rect id="Rectangle 344" x="193.78" y="67.9348" width="52.0463" height="36.8503" rx="3.22915" transform="rotate(71.7371 193.78 67.9348)" fill="url(#paint6_linear_861_205)" stroke="#211F21" stroke-width="1.1397"/>
<path id="Vector 9" d="M182.475 71.8652L187.356 86.6566" stroke="#211F21" stroke-width="1.06288" stroke-linecap="round"/>
<path id="Vector 10" d="M171.291 75.5559L176.065 90.023" stroke="#211F21" stroke-width="1.06288" stroke-linecap="round"/>
<path id="Vector 11" d="M182.721 110.189L187.483 124.62" stroke="#211F21" stroke-width="1.06288" stroke-linecap="round"/>
<path id="Vector 12" d="M193.473 106.401L198.306 121.048" stroke="#211F21" stroke-width="1.06288" stroke-linecap="round"/>
<circle id="Ellipse 12" cx="196.703" cy="94.373" r="1.1397" transform="rotate(71.7371 196.703 94.373)" fill="#211F21"/>
<g id="Vector 13">
<path d="M193.82 152.22C201.377 152.676 205.247 151.735 211.069 146.527C211.687 145.975 212.392 146.091 212.631 146.412C212.87 146.733 212.934 147.331 212.326 147.913C206.153 153.821 201.975 154.965 193.626 154.284C192.785 154.161 192.471 153.516 192.609 153.019C192.769 152.439 193.182 152.181 193.82 152.22Z" fill="#FEFBFF"/>
<path d="M209.278 142.918C208.978 142.617 208.218 142.612 207.595 143.273C203.346 147.367 200.425 148.22 194.427 147.619C193.816 147.539 193.285 147.888 193.283 148.396C193.281 148.997 193.821 149.343 194.421 149.421C200.862 150.258 204.078 149.275 209.032 144.599C209.49 144.167 209.727 143.37 209.278 142.918Z" fill="#FEFBFF"/>
<path d="M205.742 140.084C205.383 139.603 204.753 139.704 204.18 140.2C201.202 142.775 199.342 143.64 195.341 143.116C194.633 142.991 193.96 143.095 193.958 143.773C193.956 144.452 194.423 144.786 194.916 144.857C199.846 145.593 202.058 144.334 205.739 141.286C206.053 141.025 206.101 140.566 205.742 140.084Z" fill="#FEFBFF"/>
<path d="M203.049 136.772C202.51 136.35 201.937 136.454 201.186 137.187C199.586 138.728 198.511 139.059 196.315 138.795C195.34 138.657 194.333 138.849 194.391 139.63C194.448 140.411 194.81 140.647 195.949 140.716C198.902 140.763 200.429 140.359 202.804 138.454C203.43 137.989 203.648 137.375 203.049 136.772Z" fill="#FEFBFF"/>
</g>
<path id="Vector 14" d="M197.158 103.024C201.416 100.085 202.883 96.7344 201.514 92.5856C199.848 87.5349 195.531 87.3766 187.536 86.597C183.569 90.0949 181.088 90.9365 176.172 90.3471C167.963 96.6416 165.896 99.9796 167.301 104.076C169.087 109.487 174.182 109.514 182.661 110.009C186.372 107.052 188.65 106.116 193.356 106.173" stroke="#211F21" stroke-width="1.06288" stroke-linecap="round"/>
</g>
<text id="NullBank" transform="translate(96.2402 99.3276) rotate(71.7371)" fill="white" xml:space="preserve" style="white-space: pre" font-family="DM Sans" font-size="34.0121" font-weight="bold" letter-spacing="0em"><tspan x="0" y="28.5981">NullBank</tspan></text>
</g>
</g>
<defs>
<filter id="filter0_ddddd_861_205" x="0.824219" y="0.825195" width="419.732" height="568.998" filterUnits="userSpaceOnUse" color-interpolation-filters="sRGB">
<feFlood flood-opacity="0" result="BackgroundImageFix"/>
<feColorMatrix in="SourceAlpha" type="matrix" values="0 0 0 0 0 0 0 0 0 0 0 0 0 0 0 0 0 0 127 0" result="hardAlpha"/>
<feOffset/>
<feColorMatrix type="matrix" values="0 0 0 0 0 0 0 0 0 0 0 0 0 0 0 0 0 0 0.15 0"/>
<feBlend mode="normal" in2="BackgroundImageFix" result="effect1_dropShadow_861_205"/>
<feColorMatrix in="SourceAlpha" type="matrix" values="0 0 0 0 0 0 0 0 0 0 0 0 0 0 0 0 0 0 127 0" result="hardAlpha"/>
<feOffset dx="1" dy="6"/>
<feGaussianBlur stdDeviation="6.5"/>
<feColorMatrix type="matrix" values="0 0 0 0 0 0 0 0 0 0 0 0 0 0 0 0 0 0 0.15 0"/>
<feBlend mode="normal" in2="effect1_dropShadow_861_205" result="effect2_dropShadow_861_205"/>
<feColorMatrix in="SourceAlpha" type="matrix" values="0 0 0 0 0 0 0 0 0 0 0 0 0 0 0 0 0 0 127 0" result="hardAlpha"/>
<feOffset dx="4" dy="23"/>
<feGaussianBlur stdDeviation="11.5"/>
<feColorMatrix type="matrix" values="0 0 0 0 0 0 0 0 0 0 0 0 0 0 0 0 0 0 0.13 0"/>
<feBlend mode="normal" in2="effect2_dropShadow_861_205" result="effect3_dropShadow_861_205"/>
<feColorMatrix in="SourceAlpha" type="matrix" values="0 0 0 0 0 0 0 0 0 0 0 0 0 0 0 0 0 0 127 0" result="hardAlpha"/>
<feOffset dx="9" dy="52"/>
<feGaussianBlur stdDeviation="16"/>
<feColorMatrix type="matrix" values="0 0 0 0 0 0 0 0 0 0 0 0 0 0 0 0 0 0 0.08 0"/>
<feBlend mode="normal" in2="effect3_dropShadow_861_205" result="effect4_dropShadow_861_205"/>
<feColorMatrix in="SourceAlpha" type="matrix" values="0 0 0 0 0 0 0 0 0 0 0 0 0 0 0 0 0 0 127 0" result="hardAlpha"/>
<feOffset dx="16" dy="92"/>
<feGaussianBlur stdDeviation="18.5"/>
<feColorMatrix type="matrix" values="0 0 0 0 0 0 0 0 0 0 0 0 0 0 0 0 0 0 0.02 0"/>
<feBlend mode="normal" in2="effect4_dropShadow_861_205" result="effect5_dropShadow_861_205"/>
<feBlend mode="normal" in="SourceGraphic" in2="effect5_dropShadow_861_205" result="shape"/>
</filter>
<linearGradient id="paint0_linear_861_205" x1="513.785" y1="38.518" x2="923.434" y2="326.005" gradientUnits="userSpaceOnUse">
<stop stop-color="#3777F4"/>
<stop offset="1" stop-color="#1B2A4C"/>
</linearGradient>
<linearGradient id="paint1_linear_861_205" x1="513.785" y1="38.518" x2="923.434" y2="326.005" gradientUnits="userSpaceOnUse">
<stop stop-color="#3777F4"/>
<stop offset="1" stop-color="#1B2A4C"/>
</linearGradient>
<linearGradient id="paint2_linear_861_205" x1="447.152" y1="101.183" x2="470.27" y2="49.1017" gradientUnits="userSpaceOnUse">
<stop stop-color="#F6F3F7"/>
<stop offset="1" stop-color="#D6D6D6"/>
</linearGradient>
<linearGradient id="paint3_linear_861_205" x1="392.059" y1="82.3854" x2="352.918" y2="47.0939" gradientUnits="userSpaceOnUse">
<stop stop-color="#F5F5F5"/>
<stop offset="1" stop-color="#D6D6D6"/>
</linearGradient>
<linearGradient id="paint4_linear_861_205" x1="241.924" y1="-17.4817" x2="651.573" y2="270.005" gradientUnits="userSpaceOnUse">
<stop stop-color="#3777F4"/>
<stop offset="1" stop-color="#1B2A4C"/>
</linearGradient>
<linearGradient id="paint5_linear_861_205" x1="241.924" y1="-17.482" x2="651.573" y2="270.005" gradientUnits="userSpaceOnUse">
<stop stop-color="#3777F4"/>
<stop offset="1" stop-color="#1B2A4C"/>
</linearGradient>
<linearGradient id="paint6_linear_861_205" x1="242.85" y1="72.4643" x2="198.209" y2="102.225" gradientUnits="userSpaceOnUse">
<stop stop-color="#F4F4F4"/>
<stop offset="1" stop-color="#D6D6D6"/>
</linearGradient>
</defs>
</svg>
